<?xml version="1.0" encoding="iso-8859-1"?>
<!-- Uploaded to: SVG Repo, www.svgrepo.com, Generator: SVG Repo Mixer Tools -->
<svg height="800px" width="800px" version="1.1" id="Layer_1" xmlns="http://www.w3.org/2000/svg" xmlns:xlink="http://www.w3.org/1999/xlink" 
	 viewBox="0 0 512 512" xml:space="preserve">
<polygon style="fill:#ABB9C6;" points="346.4,478.938 165.605,478.938 178.512,448.737 183.427,437.253 194.153,412.162 
	317.852,412.162 328.578,437.253 333.492,448.737 "/>
<polygon style="fill:#93A0AA;" points="328.578,437.253 183.427,437.253 194.153,412.162 317.852,412.162 "/>
<path style="fill:#B6C7D3;" d="M393.462,490.425H118.535l0,0c9.791-14.369,26.054-22.967,43.442-22.967h188.043
	C367.408,467.458,383.67,476.056,393.462,490.425L393.462,490.425z"/>
<path style="fill:#ABB9C6;" d="M512,55.095v326.991c0,18.511-14.997,33.52-33.509,33.52H33.509C14.997,415.606,0,400.597,0,382.086
	V55.095c0-18.511,14.997-33.52,33.509-33.52h444.983C497.003,21.575,512,36.584,512,55.095z"/>
<path style="fill:#C5D6E2;" d="M512,55.095v326.991c0,18.511-14.997,33.52-33.509,33.52H180.898l24.552-59.875L342.47,21.575
	h136.021C497.003,21.575,512,36.584,512,55.095z"/>
<path style="fill:#93A0AA;" d="M256.002,393.214c-3.448,0-6.634-2.135-7.958-5.317c-1.465-3.521-0.359-7.694,2.622-10.058
	c6.24-4.949,15.53,0.968,13.723,8.703C263.488,390.388,259.968,393.214,256.002,393.214z"/>
<path style="fill:#B8E9F2;" d="M512,55.095v300.636H0V55.095c0-18.511,14.996-33.52,33.509-33.52h444.983
	C497.003,21.575,512,36.584,512,55.095"/>
<path style="fill:#D4F7FC;" d="M512,55.095v300.636H205.449L342.47,21.575h136.021C497.003,21.575,512,36.584,512,55.095"/>
<path style="fill:#6C767F;" d="M366.753,148.708l-89.709,32.429l-33.142,11.989l-98.654-44.418l13.598-49.344
	c5.637-20.498,26.836-32.533,47.323-26.871l39.18,10.806c6.96,1.918,14.32,1.837,21.244-0.23l38.458-11.495
	c5.835-1.745,11.759-2.033,17.374-1.091c14.367,2.412,26.758,12.919,30.8,27.951L366.753,148.708"/>
<path style="fill:#5E676D;" d="M173.566,157.173l71.369,35.576l-1.033,0.379l-98.654-44.418l13.598-49.344
	c5.637-20.498,26.836-32.533,47.323-26.871l4.846,1.332c-11.266,4.582-20.429,14.905-23.852,28.697L173.566,157.173z"/>
<g>
	<path style="fill:#6C767F;" d="M414.144,204.105c-49.734,5.845-99.985,8.911-150.284,9.198
		c-35.529,0.207-71.071-0.976-106.439-3.548c-19.912-1.447-39.779-3.329-59.553-5.65c16.902-18.19,32.704-36.667,47.381-55.396
		c9.921,0.896,19.866,1.677,29.834,2.331h0.011c37.689,2.48,75.572,3.228,113.387,2.228c26.16-0.689,52.273-2.205,78.27-4.559
		C381.428,167.439,397.229,185.916,414.144,204.105"/>
	<path style="fill:#6C767F;" d="M380.979,268.798l-1.208-12.625c-0.566-5.914-3.244-11.121-7.204-14.97l-3.05-2.517
		c-4.53-3.157-10.149-4.795-16.065-4.229l-77.096,7.385h-40.704l-77.095-7.385c-5.919-0.567-11.539,1.073-16.068,4.229l-3.049,2.515
		c-3.959,3.849-6.636,9.057-7.202,14.972l-1.209,12.624c-0.69,7.205,1.468,14.247,6.074,19.83
		c4.607,5.583,11.111,9.037,18.316,9.728l33.496,3.208c1.523,0.146,3.041,0.218,4.551,0.218c10.844,0,21.259-3.728,29.732-10.717
		c9.651-7.964,15.623-19.209,16.817-31.667l0.581-6.072h30.817l0.58,6.074c1.193,12.456,7.167,23.702,16.817,31.666
		c8.471,6.991,18.887,10.719,29.732,10.717c1.509,0,3.029-0.072,4.551-0.218l33.496-3.208c7.206-0.69,13.709-4.144,18.316-9.728
		C379.512,283.046,381.668,276.003,380.979,268.798"/>
</g>
<path style="fill:#D4F7FC;" d="M478.491,21.575H342.47l-20.053,48.906c0.003,0,0.007,0.001,0.009,0.001
	c14.367,2.412,26.758,12.919,30.8,27.951l13.527,50.274c-0.001,0.001-0.001,0.001-0.001,0.001
	c14.677,18.729,30.478,37.206,47.392,55.396c-49.734,5.845-99.985,8.911-150.284,9.198c-0.002,0-0.006,0-0.008,0l-11.702,28.539
	h24.205l77.096-7.385c0.776-0.075,1.547-0.11,2.31-0.11c5.061,0,9.819,1.597,13.756,4.34l3.05,2.517
	c3.96,3.849,6.637,9.056,7.204,14.97l1.208,12.625c0.69,7.204-1.466,14.246-6.074,19.83s-11.111,9.037-18.316,9.728l-33.496,3.208
	c-1.522,0.146-3.042,0.218-4.551,0.218c-0.001,0-0.002,0-0.003,0c-10.844,0-21.258-3.728-29.729-10.717
	c-9.651-7.964-15.624-19.209-16.818-31.666l-0.58-6.074h-23.972L205.45,355.731H512V55.095
	C512,36.584,497.003,21.575,478.491,21.575"/>
<g>
	<path style="fill:#878F96;" d="M322.416,70.482l-33.947,82.787c0.005,0,0.007,0,0.011,0c26.16-0.689,52.273-2.205,78.27-4.559
		l0.001-0.001l-13.527-50.274c-4.042-15.032-16.433-25.539-30.8-27.951C322.422,70.483,322.419,70.482,322.416,70.482
		L322.416,70.482"/>
	<path style="fill:#878F96;" d="M366.751,148.709L366.751,148.709c-25.998,2.354-52.111,3.87-78.27,4.559c-0.005,0-0.007,0-0.011,0
		l-24.617,60.034l0,0c0.002,0,0.006,0,0.008,0c50.299-0.287,100.55-3.353,150.284-9.198
		C397.229,185.916,381.428,167.439,366.751,148.709"/>
	<path style="fill:#878F96;" d="M355.761,234.347c-0.764,0-1.534,0.037-2.31,0.11l-77.096,7.385H252.15l-4.709,11.483h23.972
		l0.58,6.074c1.193,12.456,7.167,23.702,16.817,31.666c8.47,6.99,18.886,10.717,29.729,10.717c0.001,0,0.002,0,0.003,0
		c1.509,0,3.029-0.072,4.551-0.218l33.496-3.208c7.206-0.69,13.709-4.144,18.316-9.728c4.607-5.582,6.763-12.625,6.074-19.83
		l-1.208-12.625c-0.566-5.914-3.244-11.121-7.204-14.97l-3.05-2.517C365.582,235.944,360.823,234.347,355.761,234.347"/>
</g>
<path style="fill:#5E676D;" d="M175.094,151.04l-17.673,58.715c-19.912-1.447-39.78-3.33-59.553-5.65
	c16.904-18.19,32.704-36.667,47.381-55.396c9.922,0.896,19.866,1.677,29.834,2.331H175.094z"/>
</svg>