<svg width="32" height="32" viewBox="0 0 32 32" fill="none" xmlns="http://www.w3.org/2000/svg">
<rect width="32" height="32" rx="4" fill="#FEEBED"/>
<path d="M22.75 22.75C22.75 23.991 21.741 25 20.5 25H11.5C10.2572 25 9.25 23.991 9.25 22.75H10.375C10.375 23.3723 10.8788 23.875 11.5 23.875H20.5C21.1223 23.875 21.625 23.3723 21.625 22.75H22.75ZM17.6875 13.75C16.7559 13.75 16 12.9941 16 12.0625V8.125H11.5C10.8788 8.125 10.375 8.62879 10.375 9.25V14.875H9.25V9.25C9.25 8.00723 10.2572 7 11.5 7H16.9879C17.4344 7 17.8668 7.17779 18.1832 7.4943L22.2543 11.5668C22.5707 11.8832 22.75 12.3156 22.75 12.7621V14.875H21.625V13.75H17.6875ZM21.4598 12.3648L17.3852 8.28988C17.3148 8.21711 17.2234 8.16648 17.125 8.14187V12.0625C17.125 12.3719 17.3781 12.625 17.6875 12.625H21.6074C21.5828 12.5266 21.5336 12.4352 21.4598 12.3648ZM12.3438 16C13.4301 16 14.3125 16.8824 14.3125 17.9688C14.3125 19.0551 13.4301 19.9375 12.3438 19.9375H12.0625V21.0625C12.0625 21.3719 11.8108 21.625 11.5 21.625C11.1892 21.625 10.9375 21.3719 10.9375 21.0625V16.5625C10.9375 16.2531 11.1892 16 11.5 16H12.3438ZM13.1875 17.9688C13.1875 17.5012 12.8113 17.125 12.3438 17.125H12.0625V18.8125H12.3438C12.8113 18.8125 13.1875 18.4363 13.1875 17.9688ZM14.875 16.5625C14.875 16.2531 15.1281 16 15.4375 16H16.2813C17.2129 16 17.9688 16.7559 17.9688 17.6875V19.9375C17.9688 20.8691 17.2129 21.625 16.2813 21.625H15.4375C15.1281 21.625 14.875 21.3719 14.875 21.0625V16.5625ZM16 20.5H16.2813C16.5906 20.5 16.8438 20.2469 16.8438 19.9375V17.6875C16.8438 17.3781 16.5906 17.125 16.2813 17.125H16V20.5ZM21.0625 16C21.3719 16 21.625 16.2531 21.625 16.5625C21.625 16.8719 21.3719 17.125 21.0625 17.125H19.9375V18.25H21.0625C21.3719 18.25 21.625 18.5031 21.625 18.8125C21.625 19.1219 21.3719 19.375 21.0625 19.375H19.9375V21.0625C19.9375 21.3719 19.6844 21.625 19.375 21.625C19.0656 21.625 18.8125 21.3719 18.8125 21.0625V16.5625C18.8125 16.2531 19.0656 16 19.375 16H21.0625Z" fill="#F5354E"/>
</svg>
