<svg width="32" height="32" viewBox="0 0 32 32" fill="none" xmlns="http://www.w3.org/2000/svg">
<rect width="32" height="32" rx="4" fill="#EBFAF3"/>
<path d="M22.0926 11.4051L18.3484 7.66094C17.923 7.23702 17.3535 7 16.7559 7H11.5C10.2572 7 9.25 8.00723 9.25 9.25L9.25023 22.75C9.25023 23.9928 10.2575 25 11.5002 25H20.5C21.7428 25 22.75 23.9928 22.75 22.75V12.9941C22.75 12.3965 22.5145 11.827 22.0926 11.4051ZM17.125 8.19813C17.2824 8.25318 17.4297 8.33334 17.5511 8.45473L21.2952 12.1989C21.4176 12.3191 21.4984 12.4668 21.5512 12.625H17.6875C17.3781 12.625 17.125 12.3719 17.125 12.0625V8.19813ZM21.625 22.75C21.625 23.3702 21.1202 23.875 20.5 23.875H11.5C10.8798 23.875 10.375 23.3702 10.375 22.75V9.25C10.375 8.62984 10.8798 8.125 11.5 8.125H16V12.0625C16 12.9941 16.7559 13.75 17.6875 13.75H21.625V22.75ZM11.5 16V21.625C11.5 22.2462 12.0038 22.75 12.625 22.75H19.375C19.9962 22.75 20.5 22.2462 20.5 21.625V16C20.5 15.3788 19.9962 14.875 19.375 14.875H12.625C12.0038 14.875 11.5 15.3777 11.5 16ZM13.75 21.625H12.625V20.5H13.75V21.625ZM13.75 19.375H12.625V18.25H13.75V19.375ZM17.125 21.625H14.875V20.5H17.125V21.625ZM17.125 19.375H14.875V18.25H17.125V19.375ZM19.375 21.625H18.25V20.5H19.375V21.625ZM19.375 19.375H18.25V18.25H19.375V19.375ZM19.375 17.125H12.625V16H19.375V17.125Z" fill="#34D188"/>
</svg>
