<svg width="32" height="32" viewBox="0 0 32 32" fill="none" xmlns="http://www.w3.org/2000/svg">
<rect width="32" height="32" rx="4" fill="#E6E8FF"/>
<path d="M15.4762 15.7926L13.9293 19.6598L13.177 15.891C13.1165 15.5867 12.8215 15.3872 12.515 15.4498C12.2102 15.5078 12.0126 15.8066 12.0734 16.109L13.1984 21.734C13.2473 21.9779 13.4505 22.1608 13.6983 22.184C13.9532 22.2071 14.18 22.0637 14.2724 21.8324L16 17.5152L17.7276 21.8359C17.8141 22.0504 18.0215 22.1875 18.25 22.1875C18.267 22.1875 18.2841 22.187 18.3016 22.1853C18.5494 22.1622 18.7527 21.9793 18.8016 21.7353L19.9266 16.1103C19.9875 15.8054 19.7898 15.5095 19.4854 15.4483C19.1766 15.3846 18.8838 15.5845 18.8234 15.8895L18.0693 19.6583L16.5224 15.7911C16.3199 15.3637 15.6484 15.3637 15.4762 15.7926ZM22.0926 11.4051L18.3484 7.66094C17.923 7.23702 17.3535 7 16.7559 7H11.5C10.2572 7 9.25 8.00723 9.25 9.25L9.25023 22.75C9.25023 23.9928 10.2575 25 11.5002 25H20.5C21.7428 25 22.75 23.9928 22.75 22.75V12.9941C22.75 12.3965 22.5145 11.827 22.0926 11.4051ZM17.125 8.19813C17.2824 8.25318 17.4297 8.33334 17.5511 8.45473L21.2952 12.1989C21.4176 12.3191 21.4984 12.4668 21.5512 12.625H17.6875C17.3781 12.625 17.125 12.3719 17.125 12.0625V8.19813ZM21.625 22.75C21.625 23.3702 21.1202 23.875 20.5 23.875H11.5C10.8798 23.875 10.375 23.3702 10.375 22.75V9.25C10.375 8.62984 10.8798 8.125 11.5 8.125H16V12.0625C16 12.9941 16.7559 13.75 17.6875 13.75H21.625V22.75Z" fill="#4D11F6"/>
</svg>
