<svg width="32" height="32" viewBox="0 0 32 32" fill="none" xmlns="http://www.w3.org/2000/svg">
<rect width="32" height="32" rx="4" fill="#FEEBED"/>
<path d="M24.4625 11.1762C24.1316 11.0049 23.7322 11.0275 23.4266 11.2418L20.2141 13.4931C19.9875 13.6513 19.9328 13.9634 20.091 14.1893C20.2219 14.4156 20.5594 14.4688 20.7875 14.3125L24 12.0625V20.0594L20.7875 17.8125C20.5604 17.6548 20.2494 17.709 20.0913 17.9356C19.9331 18.1616 19.9878 18.4737 20.2143 18.6318L23.4268 20.8812C23.5987 21.0013 23.7999 21.062 24.0012 21.062C24.1589 21.062 24.3174 21.0244 24.4631 20.9487C24.7937 20.775 25 20.4094 25 20.0344V12.0625C25 11.6875 24.7937 11.35 24.4625 11.1762ZM17 10.0625H9C7.89531 10.0625 7 10.9578 7 12.0625V20.0625C7 21.1672 7.89531 22.0625 9 22.0625H17C18.1047 22.0625 19 21.1672 19 20.0625V12.0625C19 10.9578 18.1031 10.0625 17 10.0625ZM18 20.0625C18 20.6137 17.5512 21.0625 17 21.0625H9C8.44875 21.0625 8 20.6137 8 20.0625V12.0625C8 11.5113 8.44875 11.0625 9 11.0625H17C17.5512 11.0625 18 11.5113 18 12.0625V20.0625Z" fill="#F5354E"/>
</svg>
