<svg width="32" height="32" viewBox="0 0 32 32" fill="none" xmlns="http://www.w3.org/2000/svg">
<rect width="32" height="32" rx="4" fill="#E6E8FF"/>
<path d="M22.0926 11.4051L18.3484 7.66094C17.923 7.23703 17.3535 7 16.7559 7L11.5 7C10.2572 7 9.25 8.00723 9.25 9.25L9.25023 22.75C9.25023 23.9928 10.2575 25 11.5002 25H20.5C21.7428 25 22.75 23.9928 22.75 22.75V12.9941C22.75 12.3965 22.5145 11.827 22.0926 11.4051ZM17.125 8.19813C17.2824 8.25318 17.4297 8.33334 17.5511 8.45473L21.2952 12.1989C21.4176 12.3191 21.4984 12.4668 21.5512 12.625H17.6875C17.3781 12.625 17.125 12.3719 17.125 12.0625V8.19813ZM21.625 22.75C21.625 23.3702 21.1202 23.875 20.5 23.875H11.5C10.8798 23.875 10.375 23.3702 10.375 22.75V9.25C10.375 8.62985 10.8798 8.125 11.5 8.125H16V12.0625C16 12.9941 16.7559 13.75 17.6875 13.75H21.625V22.75ZM12.625 16.5625C12.625 16.8719 12.8781 17.125 13.1875 17.125H18.8125C19.1219 17.125 19.375 16.8719 19.375 16.5625C19.375 16.2531 19.1219 16 18.8125 16H13.1875C12.8781 16 12.625 16.2531 12.625 16.5625ZM18.8125 18.25H13.1875C12.8781 18.25 12.625 18.5031 12.625 18.8125C12.625 19.1219 12.8781 19.375 13.1875 19.375H18.8125C19.1232 19.375 19.375 19.1231 19.375 18.8125C19.375 18.5019 19.1219 18.25 18.8125 18.25ZM18.8125 20.5H13.1875C12.8781 20.5 12.625 20.7531 12.625 21.0625C12.625 21.3719 12.8781 21.625 13.1875 21.625H18.8125C19.1232 21.625 19.375 21.3731 19.375 21.0625C19.375 20.7519 19.1219 20.5 18.8125 20.5Z" fill="#4D11F6"/>
</svg>
