<svg width="32" height="32" viewBox="0 0 32 32" fill="none" xmlns="http://www.w3.org/2000/svg">
<rect width="32" height="32" rx="4" fill="#FFF5EC"/>
<path d="M16.9662 8.67213C16.8272 8.60943 16.6774 8.57812 16.5307 8.57812C16.2761 8.57812 16.0248 8.67024 15.8269 8.84614L11.361 12.8135H8.58824C7.71107 12.8135 7 13.5245 7 14.3719V17.5186C7 18.3958 7.71107 19.0771 8.58824 19.0771H11.3624L15.826 23.0443C16.0232 23.309 16.2746 23.4017 16.5294 23.4017C16.6763 23.4017 16.8258 23.3709 16.9649 23.3078C17.3467 23.137 17.5882 22.7598 17.5882 22.3429V9.63698C17.5882 9.2204 17.3467 8.81308 16.9662 8.67213ZM16.4996 22.3131L11.7349 18.0778H8.58824C8.29633 18.0778 8.05882 17.8409 8.05882 17.5497V14.3732C8.05882 14.082 8.29633 13.8451 8.58824 13.8451H11.7349L16.4699 9.63963C16.4701 9.63937 16.4697 9.63976 16.4699 9.63963L16.4996 22.3131ZM22.2007 10.7851C21.9577 10.6223 21.629 10.6874 21.4662 10.9304C21.3034 11.1734 21.3685 11.5022 21.6115 11.665C23.071 12.6414 23.9412 14.2594 23.9412 15.9899C23.9412 17.7204 23.07 19.3385 21.6104 20.3146C21.3674 20.4774 21.3023 20.8062 21.4652 21.0491C21.5688 21.2013 21.7342 21.284 21.9063 21.284C22.0076 21.284 22.1099 21.2551 22.2004 21.1946C23.9544 20.0201 25 18.0745 25 15.9899C25 13.9054 23.9544 11.9598 22.2007 10.7851ZM20.4471 13.4322C20.2046 13.2693 19.8753 13.3345 19.7125 13.5775C19.5497 13.8205 19.6148 14.1493 19.8578 14.3121C20.4272 14.6929 20.7647 15.3182 20.7647 15.9899C20.7647 16.6616 20.4262 17.288 19.8588 17.6675C19.6158 17.8304 19.5506 18.1592 19.7135 18.4021C19.8151 18.5543 19.9838 18.637 20.1526 18.637C20.2539 18.637 20.3563 18.608 20.4468 18.5475C21.3107 17.9719 21.8235 16.9859 21.8235 15.9899C21.8235 14.994 21.3107 14.0079 20.4471 13.4322Z" fill="#FF973C"/>
</svg>
